<svg width="457" height="90" viewBox="0 0 457 90" fill="none" xmlns="http://www.w3.org/2000/svg">
<path d="M350.843 74.4349C347.049 74.4349 343.59 73.7644 340.466 72.4273C337.414 71.0864 334.775 69.1549 332.542 66.6254C330.386 64.0236 328.71 60.8617 327.521 57.1398C326.405 53.4217 325.849 49.2161 325.849 44.5304C325.849 39.8447 326.405 35.6771 327.521 32.0314C328.71 28.3134 330.386 25.1858 332.542 22.6563C334.775 20.0544 337.414 18.0811 340.466 16.7401C343.517 15.3268 346.938 14.6182 350.732 14.6182C354.527 14.6182 357.689 15.3268 360.664 16.7401C363.639 18.0811 366.169 19.9744 368.252 22.4315C370.336 24.8848 371.932 27.8638 373.048 31.3571C374.237 34.7781 374.835 38.5723 374.835 42.7399V45.7532H332.542V48.5418C332.542 51.517 332.95 54.2713 333.769 56.8008C334.66 59.2541 335.891 61.376 337.453 63.1626C339.087 64.9493 341.06 66.3626 343.369 67.4026C345.673 68.3702 348.279 68.854 351.178 68.854C359.51 68.854 365.277 65.0217 368.473 57.3608L373.159 60.4845C371.372 64.7245 368.546 68.1111 364.679 70.6406C360.885 73.1702 356.271 74.4349 350.843 74.4349ZM350.732 19.9782C347.982 19.9782 345.487 20.5001 343.254 21.5401C341.022 22.5077 339.087 23.8829 337.453 25.6696C335.891 27.4562 334.664 29.6124 333.769 32.1419C332.95 34.5952 332.542 37.3114 332.542 40.2866V40.8428H367.917V39.9514C367.917 36.9762 367.509 34.26 366.69 31.8067C365.871 29.2772 364.683 27.1553 363.121 25.4448C361.635 23.7344 359.81 22.3934 357.654 21.4258C355.571 20.4582 353.266 19.9744 350.736 19.9744L350.732 19.9782Z" fill="#2E363C"/>
<path d="M202.417 73.094V18.4011H208.779V24.3591C209.374 22.9458 210.006 22.1229 210.894 21.0906C212.113 19.8715 213.32 18.7096 214.585 17.742C215.85 16.7744 217.339 16.0316 219.05 15.5097C220.836 14.9154 222.92 14.6182 225.301 14.6182C229.392 14.6182 233 15.5858 236.124 17.5211C239.248 19.4563 241.518 22.5039 242.931 26.6715H243.267C244.307 23.3229 246.28 20.4963 249.183 18.1915C252.158 15.8106 256.177 14.622 261.236 14.622C267.339 14.622 272.025 16.5192 275.297 20.3134C278.569 24.0315 280.207 29.3914 280.207 36.3819V73.094H273.845V37.4981C273.845 26.0429 269.045 20.3134 259.449 20.3134C257.442 20.3134 255.545 20.5725 253.758 21.0944C251.971 21.6163 250.371 22.4353 248.958 23.5477C247.621 24.5877 246.539 25.9286 245.724 27.5667C244.905 29.1286 244.497 30.9533 244.497 33.0333V73.094H238.135V37.4981C238.135 26.0429 233.373 20.3134 223.85 20.3134C221.914 20.3134 220.017 20.5725 218.158 21.0944C216.375 21.6163 214.775 22.3972 213.362 23.4372C211.949 24.4772 210.833 25.8181 210.014 27.4562C209.195 29.0181 208.787 30.8429 208.787 32.9228V73.094H202.417Z" fill="#2E363C"/>
<path d="M311.354 73.094C309.049 73.094 307.3 72.4616 306.108 71.1968C304.92 69.9321 304.321 68.2216 304.321 66.0654V21.5401H284.977V15.9592H300.862C302.424 15.9592 303.464 15.662 303.986 15.0678C304.58 14.3973 304.878 13.2468 304.878 11.6087V0.00120544H310.679V15.9592H304.798V21.5401H310.679V67.5169H319.674V73.0978H311.346L311.354 73.094Z" fill="#2E363C"/>
<path d="M64.9176 73.094C62.6128 73.094 60.8643 72.4616 59.6719 71.1968C58.4833 69.9321 57.8853 68.2597 57.8853 66.1759V0.00120544H64.2433V67.5169H80.2089V73.0978H64.9138L64.9176 73.094Z" fill="#2E363C"/>
<path d="M450.328 27.9397C449.855 28.3411 449.232 28.5436 448.451 28.5436C447.765 28.5436 447.209 28.3786 446.77 28.056C446.331 27.7259 446.016 27.2945 445.828 26.7506C445.629 26.2067 445.536 25.6027 445.536 24.95C445.536 23.9147 445.768 23.0669 446.23 22.4067C446.691 21.754 447.434 21.4239 448.451 21.4239C449.247 21.4239 449.862 21.619 450.302 21.9978C450.733 22.3767 450.988 22.8869 451.063 23.5283H452.482C452.407 22.4592 451.99 21.6115 451.247 20.9925C450.5 20.3736 449.566 20.066 448.455 20.066C447.453 20.066 446.628 20.2948 445.971 20.7487C445.314 21.2026 444.815 21.7915 444.488 22.508C444.154 23.2245 443.993 23.986 443.993 24.785V25.1151C443.993 25.8615 444.147 26.6005 444.466 27.3395C444.781 28.0785 445.269 28.6899 445.922 29.1701C446.579 29.6502 447.427 29.8941 448.466 29.8941C449.562 29.8941 450.5 29.5865 451.289 28.9675C452.08 28.3486 452.508 27.5083 452.583 26.4542H451.165C451.09 27.0582 450.812 27.5533 450.347 27.9547L450.339 27.9397H450.328Z" fill="#2E363C"/>
<path d="M456.332 21.679C455.976 20.6887 455.435 19.7921 454.722 18.9931C454.013 18.1979 453.124 17.5564 452.054 17.0988C450.985 16.6336 449.742 16.4011 448.316 16.4011C446.89 16.4011 445.663 16.6299 444.582 17.0988C443.501 17.5639 442.601 18.1979 441.884 18.9931C441.167 19.7959 440.634 20.6887 440.27 21.679C439.914 22.6693 439.73 23.6821 439.73 24.7249V25.1638C439.73 26.1616 439.914 27.1669 440.27 28.1648C440.634 29.1626 441.163 30.0666 441.869 30.8806C442.571 31.6909 443.464 32.3398 444.537 32.82C445.611 33.3001 446.868 33.5439 448.316 33.5439C449.765 33.5439 450.992 33.3076 452.065 32.82C453.139 32.3398 454.032 31.6909 454.749 30.8806C455.465 30.0703 455.991 29.1626 456.347 28.1648C456.7 27.1669 456.873 26.1616 456.873 25.1638V24.7249C456.873 23.6896 456.689 22.673 456.332 21.679ZM454.621 28.6149C454.043 29.7365 453.225 30.6255 452.152 31.2932C451.078 31.9534 449.799 32.291 448.316 32.291C446.834 32.291 445.532 31.9609 444.458 31.2932C443.385 30.633 442.556 29.7365 441.989 28.6149C441.411 27.4933 441.126 26.2817 441.126 24.9688C441.126 23.6558 441.411 22.3692 441.989 21.2551C442.567 20.141 443.385 19.2595 444.458 18.6068C445.532 17.9541 446.819 17.624 448.316 17.624C449.814 17.624 451.078 17.9541 452.152 18.6068C453.225 19.2595 454.054 20.1447 454.621 21.2551C455.199 22.3692 455.484 23.6033 455.484 24.9688C455.484 26.3342 455.199 27.497 454.621 28.6149Z" fill="#2E363C"/>
<path d="M164.928 73.6502C153.713 73.6502 140.342 68.5149 140.342 44.0428C140.342 32.8467 143.538 14.0659 164.928 14.0659C180.974 14.0659 189.111 23.9248 189.111 43.3723C189.111 54.6789 185.968 73.6502 164.928 73.6502ZM164.928 19.9668C152.353 19.9668 146.243 27.841 146.243 44.0428C146.243 67.7531 160.307 67.7531 164.928 67.7531C177.233 67.7531 183.214 59.7798 183.214 43.3761C183.214 32.4771 181.134 19.9668 164.928 19.9668Z" fill="#2E363C"/>
<path d="M106.719 74.134C95.504 74.134 82.1327 68.9988 82.1327 44.5266C82.1327 33.3305 85.3289 14.5497 106.719 14.5497C122.765 14.5497 130.902 24.4086 130.902 43.8561C130.902 55.1627 127.759 74.134 106.719 74.134ZM106.719 20.4506C94.144 20.4506 88.0336 28.3248 88.0336 44.5304C88.0336 68.2407 102.098 68.2407 106.719 68.2407C119.024 68.2407 125.005 60.2674 125.005 43.8599C125.005 32.9609 122.925 20.4506 106.719 20.4506Z" fill="#2E363C"/>
<path d="M424.355 15.963V25.8791C419.684 16.3516 414.309 14.3287 406.374 14.0659C386.904 13.4221 382.801 30.5191 382.801 44.3247C382.801 63.7836 390.736 73.993 406.374 73.6501C414.888 73.4635 420.816 69.894 424.355 60.8045V90.0919H430.717V15.963H424.355ZM406.374 67.753C393.985 67.753 388.702 60.7474 388.702 44.3285C388.702 22.4925 398.789 19.9668 406.374 19.9668C419.54 19.9668 423.376 28.2219 424.355 37.1628V49.1132C423.04 61.6236 417.136 67.753 406.374 67.753Z" fill="#2E363C"/>
<path d="M24.8531 14.7363C17.0818 14.8163 9.6723 18.6601 6.36185 27.1324V0.00120544H0V73.094H6.36185V62.6864C9.85516 70.1568 17.2837 74.3206 24.8531 74.3206C45.893 74.3206 47.8549 55.3531 47.8549 44.0428C47.8549 24.5953 39.8664 14.5801 24.8531 14.7363ZM24.8531 68.4197C14.137 68.4197 7.8628 63.1626 6.36185 51.1208V38.7438C8.33136 22.6334 18.0646 20.4506 24.8531 20.4506C39.1197 20.4506 41.9578 33.1438 41.9578 44.0428C41.9578 60.4464 37.1578 68.4235 24.8531 68.4235V68.4197Z" fill="#2E363C"/>
</svg>
