<?xml version="1.0" encoding="UTF-8"?>
<svg width="120" height="32" viewBox="0 0 120 32" fill="none" xmlns="http://www.w3.org/2000/svg">
  <path d="M20 8C20 12.4183 16.4183 16 12 16C7.58172 16 4 12.4183 4 8C4 3.58172 7.58172 0 12 0C16.4183 0 20 3.58172 20 8Z" fill="#B4926E"/>
  <path d="M32 24C32 28.4183 28.4183 32 24 32C19.5817 32 16 28.4183 16 24C16 19.5817 19.5817 16 24 16C28.4183 16 32 19.5817 32 24Z" fill="#A3A59F"/>
  <path d="M44 8C44 12.4183 40.4183 16 36 16C31.5817 16 28 12.4183 28 8C28 3.58172 31.5817 0 36 0C40.4183 0 44 3.58172 44 8Z" fill="#677076"/>
  <path d="M56 24C56 28.4183 52.4183 32 48 32C43.5817 32 40 28.4183 40 24C40 19.5817 43.5817 16 48 16C52.4183 16 56 19.5817 56 24Z" fill="#B4926E"/>
  <path d="M68 8C68 12.4183 64.4183 16 60 16C55.5817 16 52 12.4183 52 8C52 3.58172 55.5817 0 60 0C64.4183 0 68 3.58172 68 8Z" fill="#A3A59F"/>
  <path d="M80 24C80 28.4183 76.4183 32 72 32C67.5817 32 64 28.4183 64 24C64 19.5817 67.5817 16 72 16C76.4183 16 80 19.5817 80 24Z" fill="#677076"/>
  <path d="M92 8C92 12.4183 88.4183 16 84 16C79.5817 16 76 12.4183 76 8C76 3.58172 79.5817 0 84 0C88.4183 0 92 3.58172 92 8Z" fill="#B4926E"/>
  <path d="M104 24C104 28.4183 100.418 32 96 32C91.5817 32 88 28.4183 88 24C88 19.5817 91.5817 16 96 16C100.418 16 104 19.5817 104 24Z" fill="#A3A59F"/>
  <path d="M116 8C116 12.4183 112.418 16 108 16C103.582 16 100 12.4183 100 8C100 3.58172 103.582 0 108 0C112.418 0 116 3.58172 116 8Z" fill="#677076"/>
</svg>
