<svg width="140" height="30" viewBox="0 0 140 30" fill="none" xmlns="http://www.w3.org/2000/svg">
<g clip-path="url(#clip0_5724_9685)">
<path d="M114.124 24.5521C112.891 24.5521 111.767 24.3339 110.752 23.8987C109.76 23.4636 108.902 22.8347 108.177 22.0122C107.476 21.1664 106.932 20.1386 106.545 18.9287C106.182 17.7201 106.001 16.3539 106.001 14.8302C106.001 13.3066 106.182 11.9532 106.545 10.7679C106.932 9.55923 107.476 8.54307 108.177 7.72057C108.902 6.87473 109.76 6.23307 110.752 5.7979C111.743 5.33823 112.855 5.1084 114.088 5.1084C115.321 5.1084 116.349 5.33823 117.316 5.7979C118.284 6.23307 119.106 6.85023 119.783 7.64823C120.459 8.44623 120.98 9.4134 121.343 10.5497C121.73 11.6616 121.924 12.8947 121.924 14.2492V15.2281H108.177V16.1346C108.177 17.1017 108.31 17.9966 108.576 18.8191C108.866 19.6171 109.265 20.3066 109.773 20.8864C110.305 21.4662 110.945 21.9259 111.695 22.2642C112.444 22.5781 113.291 22.7356 114.234 22.7356C116.942 22.7356 118.817 21.4907 119.856 18.9999L121.38 20.0161C120.799 21.3939 119.881 22.4941 118.623 23.3166C117.39 24.1391 115.891 24.5497 114.126 24.5497L114.124 24.5521ZM114.088 6.8514C113.193 6.8514 112.384 7.02057 111.658 7.3589C110.932 7.67273 110.304 8.12073 109.772 8.70057C109.264 9.2804 108.865 9.98273 108.575 10.8041C108.309 11.6021 108.176 12.4852 108.176 13.4524V13.6332H119.673V13.3427C119.673 12.3756 119.54 11.4924 119.274 10.6944C119.008 9.8719 118.621 9.18357 118.113 8.62707C117.63 8.07057 117.038 7.6354 116.336 7.32157C115.66 7.00773 114.91 6.85023 114.087 6.85023L114.088 6.8514Z" fill="#2E363C"/>
<path d="M65.8818 24.1169V6.33923H67.9492V8.2759C68.1428 7.81623 68.3482 7.54907 68.6363 7.21423C69.033 6.81756 69.425 6.44073 69.8357 6.12573C70.2463 5.8119 70.7305 5.56923 71.287 5.40007C71.868 5.2064 72.5447 5.10957 73.3182 5.10957C74.6482 5.10957 75.8207 5.4234 76.8368 6.05223C77.853 6.68107 78.5903 7.67273 79.05 9.02607H79.1585C79.4968 7.93757 80.1385 7.0194 81.0812 6.26923C82.0483 5.49573 83.3538 5.1084 84.9988 5.1084C86.9822 5.1084 88.5047 5.72557 89.5687 6.95873C90.6327 8.1674 91.1647 9.90923 91.1647 12.1819V24.1157H89.0973V12.5447C89.0973 8.82073 87.5375 6.95873 84.4178 6.95873C83.7657 6.95873 83.1485 7.0439 82.5687 7.21307C81.9877 7.38223 81.4685 7.64823 81.0088 8.01106C80.5737 8.3494 80.2225 8.78456 79.9577 9.31657C79.6917 9.82407 79.5587 10.4167 79.5587 11.0934V24.1146H77.4913V12.5436C77.4913 8.81957 75.9443 6.95757 72.848 6.95757C72.2192 6.95757 71.6032 7.04273 70.9977 7.2119C70.4178 7.38107 69.8975 7.6354 69.4378 7.97373C68.9782 8.31206 68.6153 8.74723 68.3493 9.27923C68.0833 9.78673 67.9503 10.3794 67.9503 11.0561V24.1134H65.883L65.8818 24.1169Z" fill="#2E363C"/>
<path d="M101.29 24.1169C100.541 24.1169 99.9721 23.9116 99.586 23.4997C99.1986 23.0891 99.0049 22.5326 99.0049 21.8314V7.35889H92.7178V5.54589H97.8814C98.3889 5.54589 98.7273 5.44905 98.8976 5.25539C99.0913 5.03722 99.1869 4.66272 99.1869 4.13072V0.358887H101.073V5.54589H99.1613V7.35889H101.073V22.3027H103.976V24.1157H101.292L101.29 24.1169Z" fill="#2E363C"/>
<path d="M21.1896 24.1181C20.4394 24.1181 19.8713 23.9127 19.4851 23.5009C19.0978 23.0902 18.9053 22.5454 18.9053 21.8687V0.358887H20.9726V22.3039H26.1619V24.1169H21.1908L21.1896 24.1181Z" fill="#2E363C"/>
<path d="M53.6958 24.2978C50.0499 24.2978 45.7041 22.6283 45.7041 14.674C45.7041 11.0352 46.7424 4.93115 53.6958 4.93115C58.9108 4.93115 61.5556 8.13598 61.5556 14.457C61.5556 18.132 60.5348 24.2978 53.6958 24.2978ZM53.6958 6.84799C49.6089 6.84799 47.6221 9.40765 47.6221 14.674C47.6221 22.3798 52.1943 22.3798 53.6958 22.3798C57.6951 22.3798 59.6388 19.7875 59.6388 14.4558C59.6388 10.9138 58.9633 6.84682 53.6958 6.84682V6.84799Z" fill="#2E363C"/>
<path d="M34.7768 24.4552C31.131 24.4552 26.7852 22.7857 26.7852 14.8314C26.7852 11.1926 27.8235 5.0874 34.7768 5.0874C39.993 5.0874 42.6378 8.29224 42.6378 14.6132C42.6378 18.2882 41.617 24.4541 34.7768 24.4541V24.4552ZM34.7768 7.0054C30.69 7.0054 28.7032 9.56507 28.7032 14.8314C28.7032 22.5372 33.2753 22.5372 34.7768 22.5372C38.7762 22.5372 40.7198 19.9449 40.7198 14.6132C40.7198 11.0712 40.0443 7.00424 34.7768 7.00424V7.0054Z" fill="#2E363C"/>
<path d="M138.02 5.54701V8.77051C136.501 5.67301 134.755 5.01617 132.175 4.93101C125.846 4.72217 124.514 10.279 124.514 14.766C124.514 21.0905 127.092 24.4085 132.175 24.2977C134.943 24.237 136.87 23.0762 138.02 20.1222V29.6422H140.088V5.54701H138.02ZM132.175 22.3808C128.149 22.3808 126.43 20.1035 126.43 14.766C126.43 7.66917 129.709 6.84784 132.175 6.84784C136.455 6.84784 137.702 9.53117 138.02 12.4373V16.3212C137.593 20.3882 135.674 22.3797 132.175 22.3797V22.3808Z" fill="#2E363C"/>
<path d="M8.16589 5.14805C5.64006 5.17489 3.23206 6.42322 2.15522 9.17772V0.358887H0.0878906V24.1169H2.15522V20.7336C3.29039 23.1626 5.70539 24.5147 8.16589 24.5147C15.0049 24.5147 15.6431 18.3489 15.6431 14.6739C15.6431 8.35289 13.0461 5.09672 8.16589 5.14805ZM8.16589 22.5979C4.68222 22.5979 2.64289 20.8887 2.15522 16.9746V12.9507C2.79572 7.71472 5.95856 7.00539 8.16589 7.00539C12.8034 7.00539 13.7262 11.1319 13.7262 14.6739C13.7262 20.0067 12.1652 22.5979 8.16589 22.5979Z" fill="#2E363C"/>
</g>
<defs>
<clipPath id="clip0_5724_9685">
<rect width="140" height="29.2845" fill="white" transform="translate(0 0.357666)"/>
</clipPath>
</defs>
</svg>
